<svg width="1378" height="783" viewBox="0 0 1378 783" fill="none" xmlns="http://www.w3.org/2000/svg">
<rect x="90.6807" y="515.434" width="45.2424" height="44.4589" fill="#E63946" fill-opacity="0.6"/>
<rect x="90.6807" y="559.893" width="45.2424" height="44.4589" fill="#E63946" fill-opacity="0.6"/>
<rect x="135.923" y="559.893" width="45.2424" height="44.4589" fill="#E63946" fill-opacity="0.6"/>
<rect x="135.923" y="604.352" width="45.2424" height="44.4589" fill="#E63946" fill-opacity="0.6"/>
<rect x="45.2424" y="604.08" width="45.2424" height="44.4589" fill="#FFBE0B" fill-opacity="0.6"/>
<rect y="604.08" width="45.2424" height="44.4589" fill="#FFBE0B" fill-opacity="0.6"/>
<rect y="559.621" width="45.2424" height="44.4589" fill="#FFBE0B" fill-opacity="0.6"/>
<rect y="648.539" width="45.2424" height="44.4589" fill="#FFBE0B" fill-opacity="0.6"/>
<rect y="692.918" width="45.2424" height="44.4589" fill="#25B700" fill-opacity="0.6"/>
<rect x="45.2424" y="692.918" width="45.2424" height="44.4589" fill="#25B700" fill-opacity="0.6"/>
<rect x="45.2424" y="737.377" width="45.2424" height="44.4589" fill="#25B700" fill-opacity="0.6"/>
<rect y="737.377" width="45.2424" height="44.4589" fill="#25B700" fill-opacity="0.6"/>
<rect x="90.6807" y="648.731" width="45.2424" height="44.4589" fill="#5B4DFF" fill-opacity="0.6"/>
<rect x="135.923" y="693.19" width="45.2424" height="44.4589" fill="#5B4DFF" fill-opacity="0.6"/>
<rect x="135.923" y="648.731" width="45.2424" height="44.4589" fill="#5B4DFF" fill-opacity="0.6"/>
<rect x="135.923" y="737.649" width="45.2424" height="44.4589" fill="#5B4DFF" fill-opacity="0.6"/>
<rect x="44.2161" y="189.459" width="45.2424" height="44.4589" fill="#25B700" fill-opacity="0.6"/>
<rect x="44.2161" y="233.918" width="45.2424" height="44.4589" fill="#25B700" fill-opacity="0.6"/>
<rect x="44.2161" y="278.377" width="45.2424" height="44.4589" fill="#25B700" fill-opacity="0.6"/>
<rect x="44.2161" y="145" width="45.2424" height="44.4589" fill="#25B700" fill-opacity="0.6"/>
<rect width="44.6484" height="43.8752" transform="matrix(-1 0 0 1 1288.51 518.935)" fill="#E63946" fill-opacity="0.6"/>
<rect width="44.6484" height="43.8752" transform="matrix(-1 0 0 1 1288.51 562.81)" fill="#E63946" fill-opacity="0.6"/>
<rect width="44.6484" height="43.8752" transform="matrix(-1 0 0 1 1243.86 562.81)" fill="#E63946" fill-opacity="0.6"/>
<rect width="44.6484" height="43.8752" transform="matrix(-1 0 0 1 1243.86 606.686)" fill="#E63946" fill-opacity="0.6"/>
<rect width="44.6484" height="43.8752" transform="matrix(-1 0 0 1 1333.35 606.417)" fill="#FFBE0B" fill-opacity="0.6"/>
<rect width="44.6484" height="43.8752" transform="matrix(-1 0 0 1 1378 606.417)" fill="#FFBE0B" fill-opacity="0.6"/>
<rect width="44.6484" height="43.8752" transform="matrix(-1 0 0 1 1378 562.542)" fill="#FFBE0B" fill-opacity="0.6"/>
<rect width="44.6484" height="43.8752" transform="matrix(-1 0 0 1 1378 650.292)" fill="#FFBE0B" fill-opacity="0.6"/>
<rect width="44.6484" height="43.8752" transform="matrix(-1 0 0 1 1378 694.089)" fill="#8338EC" fill-opacity="0.6"/>
<rect width="44.6484" height="43.8752" transform="matrix(-1 0 0 1 1333.35 694.089)" fill="#8338EC" fill-opacity="0.6"/>
<rect width="44.6484" height="43.8752" transform="matrix(-1 0 0 1 1333.35 737.964)" fill="#8338EC" fill-opacity="0.6"/>
<rect width="44.6484" height="43.8752" transform="matrix(-1 0 0 1 1378 737.964)" fill="#8338EC" fill-opacity="0.6"/>
<rect width="44.6484" height="43.8752" transform="matrix(-1 0 0 1 1288.51 650.482)" fill="#5B4DFF" fill-opacity="0.6"/>
<rect width="44.6484" height="43.8752" transform="matrix(-1 0 0 1 1243.86 694.358)" fill="#5B4DFF" fill-opacity="0.6"/>
<rect width="44.6484" height="43.8752" transform="matrix(-1 0 0 1 1243.86 650.482)" fill="#5B4DFF" fill-opacity="0.6"/>
<rect width="44.6484" height="43.8752" transform="matrix(-1 0 0 1 1243.86 738.233)" fill="#5B4DFF" fill-opacity="0.6"/>
<rect x="1288.51" y="335.787" width="44.6484" height="43.8752" fill="#3A86FF" fill-opacity="0.6"/>
<rect x="1333.16" y="335.787" width="44.6484" height="43.8752" fill="#3A86FF" fill-opacity="0.6"/>
<rect x="1333.16" y="379.662" width="44.6484" height="43.8752" fill="#3A86FF" fill-opacity="0.6"/>
<rect x="1288.51" y="379.662" width="44.6484" height="43.8752" fill="#3A86FF" fill-opacity="0.6"/>
</svg>
