<svg width="90" height="88" viewBox="0 0 90 88" fill="none" xmlns="http://www.w3.org/2000/svg">
<path d="M78.375 7.33325H11.625C7.54583 7.33325 4.20833 10.6333 4.20833 14.6666V58.6666C4.20833 62.6999 7.54583 65.9999 11.625 65.9999H37.5833V73.3333H33.875C31.8354 73.3333 30.1667 74.9832 30.1667 76.9999C30.1667 79.0166 31.8354 80.6666 33.875 80.6666H56.125C58.1646 80.6666 59.8333 79.0166 59.8333 76.9999C59.8333 74.9832 58.1646 73.3333 56.125 73.3333H52.4167V65.9999H78.375C82.4542 65.9999 85.7917 62.6999 85.7917 58.6666V14.6666C85.7917 10.6333 82.4542 7.33325 78.375 7.33325ZM74.6667 58.6666H15.3333C13.2937 58.6666 11.625 57.0166 11.625 54.9999V18.3333C11.625 16.3166 13.2937 14.6666 15.3333 14.6666H74.6667C76.7062 14.6666 78.375 16.3166 78.375 18.3333V54.9999C78.375 57.0166 76.7062 58.6666 74.6667 58.6666Z" fill="#8338EC" fill-opacity="0.6"/>
</svg>
