<svg width="84" height="83" viewBox="0 0 84 83" fill="none" xmlns="http://www.w3.org/2000/svg">
<path d="M59.2917 55.3333L45.4583 41.5V30.5025C50.1271 28.8079 53.2742 23.9662 52.1329 18.5366C51.2683 14.4558 47.8792 11.205 43.7637 10.5133C37.2621 9.44123 31.625 14.4212 31.625 20.75C31.625 25.2458 34.53 29.05 38.5417 30.5025V41.5L24.7083 55.3333H14.3333C12.4312 55.3333 10.875 56.8896 10.875 58.7916V69.1666C10.875 71.0687 12.4312 72.625 14.3333 72.625H24.7083C26.6104 72.625 28.1667 71.0687 28.1667 69.1666V62.0771L42 47.5521L55.8333 62.0771V69.1666C55.8333 71.0687 57.3896 72.625 59.2917 72.625H69.6667C71.5687 72.625 73.125 71.0687 73.125 69.1666V58.7916C73.125 56.8896 71.5687 55.3333 69.6667 55.3333H59.2917Z" fill="#3A86FF" fill-opacity="0.6"/>
</svg>
