<svg width="88" height="88" viewBox="0 0 88 88" fill="none" xmlns="http://www.w3.org/2000/svg">
<path d="M56.8333 3.66675H27.5C22.44 3.66675 18.3333 7.77342 18.3333 12.8334V75.1668C18.3333 80.2268 22.44 84.3334 27.5 84.3334H56.8333C61.8933 84.3334 66 80.2268 66 75.1668V12.8334C66 7.77342 61.8933 3.66675 56.8333 3.66675ZM42.1667 80.6668C39.1233 80.6668 36.6667 78.2101 36.6667 75.1668C36.6667 72.1234 39.1233 69.6668 42.1667 69.6668C45.21 69.6668 47.6667 72.1234 47.6667 75.1668C47.6667 78.2101 45.21 80.6668 42.1667 80.6668ZM58.6667 66.0001H25.6667V14.6667H58.6667V66.0001Z" fill="#F9F9F9"/>
</svg>
