<svg width="92" height="91" viewBox="0 0 92 91" fill="none" xmlns="http://www.w3.org/2000/svg">
<path d="M17.4488 79.625H74.5513C80.3904 79.625 84.0304 73.2929 81.1109 68.25L52.5596 18.9204C49.64 13.8775 42.36 13.8775 39.4404 18.9204L10.8892 68.25C7.9696 73.2929 11.6096 79.625 17.4488 79.625ZM46 53.0833C43.9146 53.0833 42.2083 51.377 42.2083 49.2916V41.7083C42.2083 39.6229 43.9146 37.9166 46 37.9166C48.0854 37.9166 49.7917 39.6229 49.7917 41.7083V49.2916C49.7917 51.377 48.0854 53.0833 46 53.0833ZM49.7917 68.25H42.2083V60.6666H49.7917V68.25Z" fill="#F9F9F9"/>
</svg>
